# xmcd CD database file
#
# Track frame offsets:
#	150
#	20092
#	39392
#
# Disc length: 789 seconds
#
# Revision: 2
# Processed by: cddbd v1.5.2PL0 Copyright (c) Steve Scherf et al.
# Submitted via: CDex 1.70beta3
#
DISCID=1d031303
DTITLE=水樹奈々 - Heaven Knows
DYEAR=2001
DGENRE=J-Pop
TTITLE0=Heaven Knows
TTITLE1=Look Away
TTITLE2=Heaven Knows (vocalless ver)
EXTD=YEAR: 2001
EXTT0=
EXTT1=
EXTT2=
PLAYORDER=
